# xmcd
#
# Track frame offsets: 
#        182
#        15167
#        29697
#        43567
#        55457
#        67122
#        78655
#        90242
#        100192
#        109197
#        124282
#        137755
#        151460
#        164095
#        175825
#        187705
#        198605
#        209207
#
# Disc length: 2909 seconds
#
# Revision: 2
# Processed by: cddbd v1.5.1PL2 Copyright (c) Steve Scherf et al.
# Submitted via: ExactAudioCopy v0.95b4
#
DISCID=020b5b12
DTITLE=Willie Nelson - Face Of A Fighter 18 Great Performances
DYEAR=2002
DGENRE=Country
TTITLE0=And So Will You My Love
TTITLE1=Will You Remember Mine
TTITLE2=Home Is Where You´re Happy
TTITLE3=I Hope So
TTITLE4=Some Other Time
TTITLE5=I´ll Stay Around
TTITLE6=Is There Something On Your Mind
TTITLE7=Broken Promises
TTITLE8=Waiting Time
TTITLE9=Face of A Fighter
TTITLE10=No Tomorrow In Sight
TTITLE11=Everything But You
TTITLE12=Shelter Of Your Arms
TTITLE13=MHappiness Lives Next Door
TTITLE14=End Of Understanding
TTITLE15=Go Away
TTITLE16=Blame It On The Times
TTITLE17=Right From Wrong
EXTD=
EXTT0=
EXTT1=
EXTT2=
EXTT3=
EXTT4=
EXTT5=
EXTT6=
EXTT7=
EXTT8=
EXTT9=
EXTT10=
EXTT11=
EXTT12=
EXTT13=
EXTT14=
EXTT15=
EXTT16=
EXTT17=
PLAYORDER=
